<?xml version="1.0" standalone="no"?>
<!DOCTYPE svg PUBLIC "-//W3C//DTD SVG 20010904//EN" "http://www.w3.org/TR/2001/REC-SVG-20010904/DTD/svg10.dtd">
<svg xmlns="http://www.w3.org/2000/svg"
     width="265pt"
     height="265pt"
     viewBox="0 0 265 265"
     preserveAspectRatio="xMidYMid meet">
    <g transform="translate(0.000000,265.000000) scale(0.100000,-0.100000)" fill="#2A64C5" stroke="none">
        <path d="M1081 2466 c-47 -27 -50 -44 -51 -312 0 -236 -1 -252 -20 -269 -12 -11 -27 -15 -43 -11 -13 3 -115 58 -228 123 -226 130 -258 140 -302 93 -13 -14 -70 -105 -125 -202 -112 -193 -121 -226 -79 -271 55 -61 525 -310 687 -365 140 -48 170 -49 300 -17 121 30 144 26 138 -24 -3 -22 -12 -28 -65 -44 -35 -10 -63 -24 -63 -31 0 -15 84 -26 197 -26 81 0 113 -11 113 -39 0 -36 -25 -44 -130 -40 -62 3 -100 0 -100 -6 -1 -5 60 -20 133 -31 176 -29 177 -29 177 -65 0 -18 -6 -32 -15 -36 -9 -3 -81 4 -161 17 -80 12 -148 20 -150 17 -3 -2 26 -12 63 -21 158 -39 173 -45 173 -70 0 -49 -20 -51 -154 -17 -135 34 -140 35 -132 23 3 -5 34 -17 70 -26 45 -13 67 -24 71 -37 16 -50 -14 -50 -186 0 -262 77 -434 144 -641 247 -104 52 -137 64 -175 64 -57 0 -99 -23 -139 -76 -48 -62 -41 -85 78 -289 58 -99 115 -186 127 -193 45 -30 79 -18 296 107 116 66 219 121 231 121 50 0 53 -17 56 -293 l3 -257 28 -27 27 -28 208 -3 c237 -4 265 0 298 35 24 26 24 26 24 277 0 272 4 296 54 296 13 0 117 -54 232 -120 228 -131 259 -141 308 -97 27 24 236 382 236 404 0 8 -6 28 -14 46 -11 27 -39 48 -162 118 -148 85 -282 148 -359 168 -22 6 -161 26 -310 46 -148 19 -287 40 -308 47 -32 10 -38 15 -35 37 3 29 21 32 113 17 91 -14 34 10 -80 34 -118 25 -135 33 -135 60 0 40 24 43 132 20 57 -13 109 -25 117 -28 8 -3 12 -1 8 5 -4 6 -19 14 -34 18 -16 3 -78 22 -140 41 -87 27 -113 39 -118 56 -5 13 -1 26 11 38 18 18 24 17 163 -26 130 -41 171 -48 145 -26 -5 5 -48 26 -96 47 -86 37 -103 52 -92 79 11 30 40 25 162 -29 90 -40 129 -52 136 -44 8 7 -3 23 -37 52 -48 43 -57 63 -35 85 20 20 37 14 128 -43 48 -31 120 -70 161 -88 73 -32 76 -32 224 -31 145 1 270 17 375 47 68 20 65 36 -49 232 -92 159 -101 171 -138 184 -48 17 -34 23 -305 -133 -121 -70 -195 -106 -210 -104 -43 6 -48 36 -48 300 0 246 0 247 -24 275 l-24 28 -234 2 c-181 2 -238 0 -257 -11z"/>
    </g>
</svg>
