<?xml version="1.0" standalone="no"?>
<!DOCTYPE svg PUBLIC "-//W3C//DTD SVG 20010904//EN" "http://www.w3.org/TR/2001/REC-SVG-20010904/DTD/svg10.dtd">
<svg xmlns="http://www.w3.org/2000/svg" width="744pt" height="744pt" viewBox="0 0 744 744"
     preserveAspectRatio="xMidYMid meet">

    <g fill="#2A64C5" transform="translate(0.000000,744.000000) scale(0.100000,-0.100000)" stroke="none">
        <path d="M2470 6750 l0 -580 -329 0 c-181 0 -375 -5 -432 -10 -426 -43 -809 -220 -1103 -508 -280 -274 -449 -577 -533 -956 l-27 -121 -3 -1072 -4 -1073 581 0 580 0 0 -304 c0 -333 11 -462 55 -631 180 -691 719 -1203 1430 -1357 99 -22 116 -22 1188 -25 l1087 -4 0 581 0 580 359 0 c392 0 510 10 686 55 446 116 825 386 1080 769 131 196 224 423 277 671 l23 110 3 1063 3 1062 -580 0 -579 0 -5 353 c-5 399 -14 478 -88 703 -208 642 -745 1111 -1424 1247 -108 21 -126 21 -1177 25 l-1068 3 0 -581z m2112 -135 c239 -41 451 -157 629 -342 164 -171 258 -355 303 -592 12 -64 16 -152 16 -382 l0 -299 -249 0 -249 0 -4 308 c-4 289 -6 311 -27 372 -83 235 -251 396 -487 466 -53 16 -124 18 -706 21 l-648 4 0 229 0 230 669 0 c546 0 684 -3 753 -15z m-2112 -1380 l0 -235 -337 0 c-383 0 -415 -4 -551 -72 -157 -77 -287 -228 -349 -403 l-28 -80 -3 -657 -3 -658 -235 0 -235 0 4 673 c4 728 3 708 62 888 115 343 408 626 755 729 141 42 209 48 573 49 l347 1 0 -235z m1835 210 l25 -24 0 -556 0 -555 600 0 600 0 0 -565 0 -566 -25 -24 -24 -25 -611 0 -610 0 0 -580 0 -580 -567 0 -567 0 -23 22 -23 21 0 559 0 558 -590 0 -590 0 0 563 c1 426 4 566 13 578 29 38 40 39 651 39 l596 0 0 580 0 580 560 0 561 0 24 -25z m2392 -1802 c-3 -571 -6 -679 -20 -743 -55 -247 -189 -483 -363 -637 -136 -120 -309 -214 -481 -260 -97 -27 -102 -27 -485 -31 l-388 -3 0 230 0 230 348 3 c290 4 357 7 406 21 231 67 401 230 483 462 l28 80 3 658 3 657 235 0 235 0 -4 -667z m-4315 -1510 c4 -291 5 -300 31 -378 73 -220 227 -374 457 -456 l65 -24 663 -3 662 -3 0 -234 0 -235 -628 0 c-644 0 -730 4 -875 41 -239 61 -475 219 -627 421 -79 104 -163 276 -197 403 -26 97 -27 109 -31 433 l-3 332 239 0 240 0 4 -297z"/>
    </g>
</svg>
